<?xml version="1.0" standalone="no"?>
<!DOCTYPE svg PUBLIC "-//W3C//DTD SVG 20010904//EN"
 "http://www.w3.org/TR/2001/REC-SVG-20010904/DTD/svg10.dtd">
<svg version="1.0" xmlns="http://www.w3.org/2000/svg"
 width="197.000000pt" height="244.000000pt" viewBox="0 0 197.000000 244.000000"
 preserveAspectRatio="xMidYMid meet">

<g transform="translate(0.000000,244.000000) scale(0.100000,-0.100000)"
fill="#000000" stroke="none">
<path d="M245 2255 c-5 -2 -22 -6 -36 -9 -46 -10 -49 -34 -49 -366 0 -169 3
-315 6 -324 9 -24 30 -20 108 23 145 80 331 131 536 146 143 11 140 9 140 104
0 86 13 111 48 92 10 -5 129 -85 265 -176 268 -180 281 -193 237 -240 -24 -25
-472 -329 -503 -341 -34 -13 -47 14 -47 97 0 93 -3 95 -110 78 -225 -35 -406
-161 -533 -371 -62 -104 -90 -204 -91 -333 -2 -171 34 -267 138 -370 98 -98
224 -148 286 -115 35 18 40 65 40 341 0 255 1 269 19 279 12 6 95 10 199 10
345 0 558 67 718 225 121 119 182 266 191 465 16 345 -134 595 -430 718 -146
61 -178 64 -672 68 -247 2 -454 1 -460 -1z"/>
</g>
</svg>
